<svg xmlns="http://www.w3.org/2000/svg" xmlns:xlink="http://www.w3.org/1999/xlink" width="200" height="200" viewBox="0 0 512 512">
  <defs>
    <style>
      .cls-1 {
        clip-path: url(#clip-foreground);
      }

      .cls-2 {
        fill: #5e345e;
      }

      .cls-3 {
        fill: #432444;
      }

      .cls-4 {
        fill: #ef717a;
      }

      .cls-5 {
        fill: #d8566f;
      }

      .cls-6 {
        fill: #ecf0f1;
      }

      .cls-7 {
        fill: #fff;
      }

      .cls-8 {
        fill: rgba(255,255,255,0);
      }
    </style>
    <clipPath id="clip-foreground">
      <rect width="512" height="512"/>
    </clipPath>
  </defs>
  <g id="foreground" class="cls-1">
    <rect class="cls-8" width="512" height="512"/>
    <g id="shopping-bag-svgrepo-com" transform="translate(8.4 8.4)">
      <g id="Group_2" data-name="Group 2">
        <g id="Group_1" data-name="Group 1">
          <circle id="Ellipse_1" data-name="Ellipse 1" class="cls-2" cx="248.5" cy="248.5" r="248.5" transform="translate(-0.4 -0.4)"/>
        </g>
      </g>
      <g id="Group_3" data-name="Group 3" transform="translate(114.443 110.267)">
        <path id="Path_1" data-name="Path 1" class="cls-3" d="M68.5,369.233l70.363,74.54a248.451,248.451,0,0,0,63.293,8.16c137.021,0,248.1-111.079,248.1-248.1,0-1.136-.028-2.267-.043-3.4L344.167,66Z" transform="translate(-68.5 -66)"/>
      </g>
      <g id="Group_4" data-name="Group 4" transform="translate(106.09 106.334)">
        <rect id="Rectangle_1" data-name="Rectangle 1" class="cls-4" width="284.02" height="255.374"/>
      </g>
      <g id="Group_5" data-name="Group 5" transform="translate(106.09 361.708)">
        <path id="Path_2" data-name="Path 2" class="cls-5" d="M63.5,216.5v25.39a45.251,45.251,0,0,0,45.176,45.251l193.52.321a45.251,45.251,0,0,0,45.326-45.251V216.5Z" transform="translate(-63.5 -216.5)"/>
      </g>
      <g id="Group_7" data-name="Group 7" transform="translate(190.611 25.295)">
        <g id="Group_6" data-name="Group 6">
          <path id="Path_3" data-name="Path 3" class="cls-6" d="M218.208,130.12a10.859,10.859,0,0,1-10.86-10.86V72.629a35.77,35.77,0,0,0-71.54,0V119.26a10.86,10.86,0,1,1-21.719,0V72.629a57.489,57.489,0,1,1,114.978,0V119.26A10.859,10.859,0,0,1,218.208,130.12Z" transform="translate(-114.09 -15.14)"/>
        </g>
      </g>
    </g>
    <path id="Path_4" data-name="Path 4" class="cls-7" d="M14.167-33.288h7.909V-58.015a4.341,4.341,0,0,0-.217-1.521,2.121,2.121,0,0,0-.608-.891,2.065,2.065,0,0,0-.934-.435,6.1,6.1,0,0,0-1.2-.109,11.611,11.611,0,0,0-2.368.3,19.686,19.686,0,0,0-2.977.913,24.792,24.792,0,0,0-3.151,1.5A15.248,15.248,0,0,0,7.8-56.233,10.116,10.116,0,0,0,5.78-53.713a6.017,6.017,0,0,0-.782,3A5.512,5.512,0,0,0,5.367-48.5a3.5,3.5,0,0,0,.847,1.239,2.232,2.232,0,0,0,.978.521,3.88,3.88,0,0,0,.717.109A3.782,3.782,0,0,0,9.691-47a10.414,10.414,0,0,0,1.26-.782q.565-.413,1.065-.782a1.886,1.886,0,0,1,1.152-.369,2.942,2.942,0,0,1,1.108.239,3.158,3.158,0,0,1,1.086.76,4.329,4.329,0,0,1,.847,1.369,5.443,5.443,0,0,1,.348,2.064,6.277,6.277,0,0,1-.674,3,6.682,6.682,0,0,1-1.738,2.108,7.207,7.207,0,0,1-2.434,1.26A9.369,9.369,0,0,1,9-37.721a9.453,9.453,0,0,1-3.759-.717A8.3,8.3,0,0,1,2.39-40.415,8.494,8.494,0,0,1,.608-43.37,10.6,10.6,0,0,1,0-46.977a13.64,13.64,0,0,1,1.086-5.5,15.49,15.49,0,0,1,2.977-4.5A20.119,20.119,0,0,1,8.5-60.47a29.207,29.207,0,0,1,5.5-2.5,36.915,36.915,0,0,1,6.171-1.5,41.824,41.824,0,0,1,6.432-.5,17.9,17.9,0,0,1,5.541.674,7.363,7.363,0,0,1,2.912,1.63,3.767,3.767,0,0,1,1.108,2,10.927,10.927,0,0,1,.174,1.738v25.64H52.322v-20.9A35.259,35.259,0,0,1,54.191-66.4a24.5,24.5,0,0,1,4.824-8.235,18.126,18.126,0,0,1,6.605-4.65,19.476,19.476,0,0,1,7.257-1.456,28.94,28.94,0,0,1,4.715.369A16.237,16.237,0,0,1,81.5-79.266a7.748,7.748,0,0,1,2.673,1.847,3.74,3.74,0,0,1,1,2.586,3.891,3.891,0,0,1-.2,1.239,3.887,3.887,0,0,1-.543,1.065,2.851,2.851,0,0,1-.8.76,1.755,1.755,0,0,1-.934.282,2.189,2.189,0,0,1-1.391-.478,6.489,6.489,0,0,1-1.152-1.2q-.543-.717-1.065-1.564a10.5,10.5,0,0,0-1.173-1.564,6.155,6.155,0,0,0-1.478-1.2,3.836,3.836,0,0,0-1.956-.478,5.942,5.942,0,0,0-4.215,1.456,9.25,9.25,0,0,0-2.39,4.259,31.492,31.492,0,0,0-1.065,6.975q-.239,4.172-.239,9.561v22.424h8.735v3.824H66.576V-3.042a3.406,3.406,0,0,0,.543,2.021,1.917,1.917,0,0,0,1.673.76A5.817,5.817,0,0,0,71.052-.7q1.043-.435,1.825-.826L73.616.087q-.956.652-2.238,1.369A25.679,25.679,0,0,1,68.553,2.8a22.025,22.025,0,0,1-3.3,1.043,16.03,16.03,0,0,1-3.672.413,12.285,12.285,0,0,1-4.78-.782,6.964,6.964,0,0,1-2.825-2.064,6.849,6.849,0,0,1-1.325-2.89,16.365,16.365,0,0,1-.326-3.259V-29.464H36.33V-7.822a23.151,23.151,0,0,1-2.151,10.3A20.816,20.816,0,0,1,28.291,9.8a25.487,25.487,0,0,1-8.8,4.389A39.071,39.071,0,0,1,8.648,15.645a23.9,23.9,0,0,1-4.259-.369A17.483,17.483,0,0,1,.782,14.254a8.1,8.1,0,0,1-2.5-1.543,2.646,2.646,0,0,1-.934-1.934,6.061,6.061,0,0,1,.217-1.586,4.915,4.915,0,0,1,.652-1.456A4,4,0,0,1-.717,6.649,2.43,2.43,0,0,1,.7,6.214a1.062,1.062,0,0,1,.847.478,9.084,9.084,0,0,1,.76,1.2q.391.717.891,1.543a6.776,6.776,0,0,0,1.3,1.543,6.936,6.936,0,0,0,1.934,1.2,7.277,7.277,0,0,0,2.825.478,12.65,12.65,0,0,0,5.758-1.217A10.694,10.694,0,0,0,18.991,8a15.56,15.56,0,0,0,2.325-5.28A27.848,27.848,0,0,0,22.076-4V-29.464H14.167ZM79.831-22.25a27.622,27.622,0,0,1,1.651-9.973,21.124,21.124,0,0,1,4.411-7.149,17.872,17.872,0,0,1,6.41-4.3,20.731,20.731,0,0,1,7.648-1.434,22.236,22.236,0,0,1,7.648,1.325,17.455,17.455,0,0,1,6.41,4.063,19.848,19.848,0,0,1,4.411,6.931,27.053,27.053,0,0,1,1.651,9.93,28.517,28.517,0,0,1-1.651,10.082,22.42,22.42,0,0,1-4.411,7.388A18.331,18.331,0,0,1,107.6-.847,19.451,19.451,0,0,1,99.951.7,20.458,20.458,0,0,1,92.3-.76a18.118,18.118,0,0,1-6.41-4.324,21.085,21.085,0,0,1-4.411-7.17A27.8,27.8,0,0,1,79.831-22.25Zm26.726-.435q0-3.477-.239-6.714a30.082,30.082,0,0,0-.934-5.758,10.157,10.157,0,0,0-2-4.02,4.328,4.328,0,0,0-3.433-1.5,4.226,4.226,0,0,0-3.433,1.586,10.984,10.984,0,0,0-2,4.172,30.48,30.48,0,0,0-.913,5.888q-.217,3.3-.217,6.779t.217,6.8a30.958,30.958,0,0,0,.913,5.932,10.985,10.985,0,0,0,2,4.194,4.226,4.226,0,0,0,3.433,1.586,4.162,4.162,0,0,0,3.433-1.651,11.637,11.637,0,0,0,2-4.346,34.022,34.022,0,0,0,.934-6.084Q106.557-19.208,106.557-22.685Zm18.86.435a27.622,27.622,0,0,1,1.651-9.973,21.124,21.124,0,0,1,4.411-7.149,17.872,17.872,0,0,1,6.41-4.3,20.731,20.731,0,0,1,7.648-1.434,22.236,22.236,0,0,1,7.648,1.325,17.455,17.455,0,0,1,6.41,4.063,19.848,19.848,0,0,1,4.411,6.931,27.053,27.053,0,0,1,1.651,9.93,28.517,28.517,0,0,1-1.651,10.082A22.42,22.42,0,0,1,159.6-5.389a18.331,18.331,0,0,1-6.41,4.541A19.451,19.451,0,0,1,145.538.7,20.458,20.458,0,0,1,137.889-.76a18.118,18.118,0,0,1-6.41-4.324,21.085,21.085,0,0,1-4.411-7.17A27.8,27.8,0,0,1,125.417-22.25Zm26.726-.435q0-3.477-.239-6.714a30.082,30.082,0,0,0-.934-5.758,10.157,10.157,0,0,0-2-4.02,4.328,4.328,0,0,0-3.433-1.5A4.226,4.226,0,0,0,142.1-39.09a10.984,10.984,0,0,0-2,4.172,30.479,30.479,0,0,0-.913,5.888q-.217,3.3-.217,6.779t.217,6.8a30.957,30.957,0,0,0,.913,5.932,10.985,10.985,0,0,0,2,4.194,4.226,4.226,0,0,0,3.433,1.586,4.162,4.162,0,0,0,3.433-1.651,11.637,11.637,0,0,0,2-4.346,34.022,34.022,0,0,0,.934-6.084Q152.143-19.208,152.143-22.685Zm35.722-18.687V-9.256a4.557,4.557,0,0,0,.869,3.194,3.185,3.185,0,0,0,2.39.891,3.5,3.5,0,0,0,2.086-.652A7.617,7.617,0,0,0,194.774-7.3a9.2,9.2,0,0,0,1.347-2.129l1.347.608q-.652,1.391-1.543,3.042a12.355,12.355,0,0,1-2.368,3.064,12.308,12.308,0,0,1-3.716,2.368,14.388,14.388,0,0,1-5.628.956,11.941,11.941,0,0,1-3.672-.565,8.624,8.624,0,0,1-3.129-1.782,8.927,8.927,0,0,1-2.195-3.042,10.6,10.6,0,0,1-.826-4.389v-32.2h-4.867V-44.5a13.108,13.108,0,0,0,3.39-.63,16.928,16.928,0,0,0,4.454-2.108,17.716,17.716,0,0,0,4.237-3.955,15.116,15.116,0,0,0,2.781-6.127h3.477V-44.5h7.083q3.477,0,3.477-1.173a.58.58,0,0,0-.435-.587q-.435-.152-.978-.391a3.193,3.193,0,0,1-.978-.674,1.975,1.975,0,0,1-.435-1.434,2.461,2.461,0,0,1,.76-1.912,2.816,2.816,0,0,1,1.977-.7,2.773,2.773,0,0,1,1.369.326,2.964,2.964,0,0,1,.978.869,3.912,3.912,0,0,1,.587,1.239,5.116,5.116,0,0,1,.2,1.391,6.17,6.17,0,0,1-1.63,4.5q-1.63,1.673-5.237,1.673Z" transform="translate(124 246)"/>
    <path id="Path_5" data-name="Path 5" class="cls-7" d="M14.167-33.288h7.909V-58.015a4.341,4.341,0,0,0-.217-1.521,2.121,2.121,0,0,0-.608-.891,2.065,2.065,0,0,0-.934-.435,6.1,6.1,0,0,0-1.2-.109,11.611,11.611,0,0,0-2.368.3,19.686,19.686,0,0,0-2.977.913,24.792,24.792,0,0,0-3.151,1.5A15.248,15.248,0,0,0,7.8-56.233,10.116,10.116,0,0,0,5.78-53.713a6.017,6.017,0,0,0-.782,3A5.512,5.512,0,0,0,5.367-48.5a3.5,3.5,0,0,0,.847,1.239,2.232,2.232,0,0,0,.978.521,3.88,3.88,0,0,0,.717.109A3.782,3.782,0,0,0,9.691-47a10.414,10.414,0,0,0,1.26-.782q.565-.413,1.065-.782a1.886,1.886,0,0,1,1.152-.369,2.942,2.942,0,0,1,1.108.239,3.158,3.158,0,0,1,1.086.76,4.329,4.329,0,0,1,.847,1.369,5.443,5.443,0,0,1,.348,2.064,6.277,6.277,0,0,1-.674,3,6.682,6.682,0,0,1-1.738,2.108,7.207,7.207,0,0,1-2.434,1.26A9.369,9.369,0,0,1,9-37.721a9.453,9.453,0,0,1-3.759-.717A8.3,8.3,0,0,1,2.39-40.415,8.494,8.494,0,0,1,.608-43.37,10.6,10.6,0,0,1,0-46.977a13.64,13.64,0,0,1,1.086-5.5,15.49,15.49,0,0,1,2.977-4.5A20.119,20.119,0,0,1,8.5-60.47a29.207,29.207,0,0,1,5.5-2.5,36.915,36.915,0,0,1,6.171-1.5,41.824,41.824,0,0,1,6.432-.5,17.9,17.9,0,0,1,5.541.674,7.363,7.363,0,0,1,2.912,1.63,3.767,3.767,0,0,1,1.108,2,10.927,10.927,0,0,1,.174,1.738v25.64H52.322v-20.9A35.259,35.259,0,0,1,54.191-66.4a24.5,24.5,0,0,1,4.824-8.235,18.126,18.126,0,0,1,6.605-4.65,19.476,19.476,0,0,1,7.257-1.456,28.94,28.94,0,0,1,4.715.369A16.237,16.237,0,0,1,81.5-79.266a7.748,7.748,0,0,1,2.673,1.847,3.74,3.74,0,0,1,1,2.586,3.891,3.891,0,0,1-.2,1.239,3.887,3.887,0,0,1-.543,1.065,2.851,2.851,0,0,1-.8.76,1.755,1.755,0,0,1-.934.282,2.189,2.189,0,0,1-1.391-.478,6.489,6.489,0,0,1-1.152-1.2q-.543-.717-1.065-1.564a10.5,10.5,0,0,0-1.173-1.564,6.155,6.155,0,0,0-1.478-1.2,3.836,3.836,0,0,0-1.956-.478,5.942,5.942,0,0,0-4.215,1.456,9.25,9.25,0,0,0-2.39,4.259,31.492,31.492,0,0,0-1.065,6.975q-.239,4.172-.239,9.561v22.424h8.735v3.824H66.576V-3.042a3.406,3.406,0,0,0,.543,2.021,1.917,1.917,0,0,0,1.673.76A5.817,5.817,0,0,0,71.052-.7q1.043-.435,1.825-.826L73.616.087q-.956.652-2.238,1.369A25.679,25.679,0,0,1,68.553,2.8a22.025,22.025,0,0,1-3.3,1.043,16.03,16.03,0,0,1-3.672.413,12.285,12.285,0,0,1-4.78-.782,6.964,6.964,0,0,1-2.825-2.064,6.849,6.849,0,0,1-1.325-2.89,16.365,16.365,0,0,1-.326-3.259V-29.464H36.33V-7.822a23.151,23.151,0,0,1-2.151,10.3A20.816,20.816,0,0,1,28.291,9.8a25.487,25.487,0,0,1-8.8,4.389A39.071,39.071,0,0,1,8.648,15.645a23.9,23.9,0,0,1-4.259-.369A17.483,17.483,0,0,1,.782,14.254a8.1,8.1,0,0,1-2.5-1.543,2.646,2.646,0,0,1-.934-1.934,6.061,6.061,0,0,1,.217-1.586,4.915,4.915,0,0,1,.652-1.456A4,4,0,0,1-.717,6.649,2.43,2.43,0,0,1,.7,6.214a1.062,1.062,0,0,1,.847.478,9.084,9.084,0,0,1,.76,1.2q.391.717.891,1.543a6.776,6.776,0,0,0,1.3,1.543,6.936,6.936,0,0,0,1.934,1.2,7.277,7.277,0,0,0,2.825.478,12.65,12.65,0,0,0,5.758-1.217A10.694,10.694,0,0,0,18.991,8a15.56,15.56,0,0,0,2.325-5.28A27.848,27.848,0,0,0,22.076-4V-29.464H14.167ZM79.831-22.25a27.622,27.622,0,0,1,1.651-9.973,21.124,21.124,0,0,1,4.411-7.149,17.872,17.872,0,0,1,6.41-4.3,20.731,20.731,0,0,1,7.648-1.434,22.236,22.236,0,0,1,7.648,1.325,17.455,17.455,0,0,1,6.41,4.063,19.848,19.848,0,0,1,4.411,6.931,27.053,27.053,0,0,1,1.651,9.93,28.517,28.517,0,0,1-1.651,10.082,22.42,22.42,0,0,1-4.411,7.388A18.331,18.331,0,0,1,107.6-.847,19.451,19.451,0,0,1,99.951.7,20.458,20.458,0,0,1,92.3-.76a18.118,18.118,0,0,1-6.41-4.324,21.085,21.085,0,0,1-4.411-7.17A27.8,27.8,0,0,1,79.831-22.25Zm26.726-.435q0-3.477-.239-6.714a30.082,30.082,0,0,0-.934-5.758,10.157,10.157,0,0,0-2-4.02,4.328,4.328,0,0,0-3.433-1.5,4.226,4.226,0,0,0-3.433,1.586,10.984,10.984,0,0,0-2,4.172,30.48,30.48,0,0,0-.913,5.888q-.217,3.3-.217,6.779t.217,6.8a30.958,30.958,0,0,0,.913,5.932,10.985,10.985,0,0,0,2,4.194,4.226,4.226,0,0,0,3.433,1.586,4.162,4.162,0,0,0,3.433-1.651,11.637,11.637,0,0,0,2-4.346,34.022,34.022,0,0,0,.934-6.084Q106.557-19.208,106.557-22.685Zm18.86.435a27.622,27.622,0,0,1,1.651-9.973,21.124,21.124,0,0,1,4.411-7.149,17.872,17.872,0,0,1,6.41-4.3,20.731,20.731,0,0,1,7.648-1.434,22.236,22.236,0,0,1,7.648,1.325,17.455,17.455,0,0,1,6.41,4.063,19.848,19.848,0,0,1,4.411,6.931,27.053,27.053,0,0,1,1.651,9.93,28.517,28.517,0,0,1-1.651,10.082A22.42,22.42,0,0,1,159.6-5.389a18.331,18.331,0,0,1-6.41,4.541A19.451,19.451,0,0,1,145.538.7,20.458,20.458,0,0,1,137.889-.76a18.118,18.118,0,0,1-6.41-4.324,21.085,21.085,0,0,1-4.411-7.17A27.8,27.8,0,0,1,125.417-22.25Zm26.726-.435q0-3.477-.239-6.714a30.082,30.082,0,0,0-.934-5.758,10.157,10.157,0,0,0-2-4.02,4.328,4.328,0,0,0-3.433-1.5A4.226,4.226,0,0,0,142.1-39.09a10.984,10.984,0,0,0-2,4.172,30.479,30.479,0,0,0-.913,5.888q-.217,3.3-.217,6.779t.217,6.8a30.957,30.957,0,0,0,.913,5.932,10.985,10.985,0,0,0,2,4.194,4.226,4.226,0,0,0,3.433,1.586,4.162,4.162,0,0,0,3.433-1.651,11.637,11.637,0,0,0,2-4.346,34.022,34.022,0,0,0,.934-6.084Q152.143-19.208,152.143-22.685Zm35.722-18.687V-9.256a4.557,4.557,0,0,0,.869,3.194,3.185,3.185,0,0,0,2.39.891,3.5,3.5,0,0,0,2.086-.652A7.617,7.617,0,0,0,194.774-7.3a9.2,9.2,0,0,0,1.347-2.129l1.347.608q-.652,1.391-1.543,3.042a12.355,12.355,0,0,1-2.368,3.064,12.308,12.308,0,0,1-3.716,2.368,14.388,14.388,0,0,1-5.628.956,11.941,11.941,0,0,1-3.672-.565,8.624,8.624,0,0,1-3.129-1.782,8.927,8.927,0,0,1-2.195-3.042,10.6,10.6,0,0,1-.826-4.389v-32.2h-4.867V-44.5a13.108,13.108,0,0,0,3.39-.63,16.928,16.928,0,0,0,4.454-2.108,17.716,17.716,0,0,0,4.237-3.955,15.116,15.116,0,0,0,2.781-6.127h3.477V-44.5h7.083q3.477,0,3.477-1.173a.58.58,0,0,0-.435-.587q-.435-.152-.978-.391a3.193,3.193,0,0,1-.978-.674,1.975,1.975,0,0,1-.435-1.434,2.461,2.461,0,0,1,.76-1.912,2.816,2.816,0,0,1,1.977-.7,2.773,2.773,0,0,1,1.369.326,2.964,2.964,0,0,1,.978.869,3.912,3.912,0,0,1,.587,1.239,5.116,5.116,0,0,1,.2,1.391,6.17,6.17,0,0,1-1.63,4.5q-1.63,1.673-5.237,1.673Z" transform="translate(189 331)"/>
  </g>
</svg>
